<svg version="1.2" xmlns="http://www.w3.org/2000/svg" viewBox="0 0 1100 85" width="1100" height="85">
	<style>
		.s0 { fill: #ffffff } 
		.s1 { fill: #c84b31 } 
	</style>
	<path id="LEGO INTERIOR DESIGN" class="s0" aria-label="LEGO INTERIOR DESIGN"  d="m0.6 82v-64.7h2.8v64.7zm16.9 0v-64.7h2.8v50.6h22.5v2.9h-22.5v2.8h22.5v2.8h-22.5v2.8h22.5v2.8zm-5.6 0v-64.7h2.8v64.7zm-5.6 0v-64.7h2.8v64.7zm56.4-64.7v64.7h-2.8v-64.7zm-5.6 0v64.7h-2.8v-64.7zm-5.6 0v64.7h-2.8v-64.7zm16.8 39.4v11.2h30v2.9h-30v2.8h30v2.8h-30v2.8h30v2.8h-32.8v-64.7h32.8v2.8h-30v2.8h30v2.9h-30v2.8h30v2.8h-30v11.2h15.4v2.8h-15.4v2.9h15.4v2.8h-15.4v2.8h15.4v2.8zm89 25.3v-33.8h2.8v33.8zm11.2 0v-33.8h2.9v33.8zm-5.7 0v-33.8h2.8v33.8zm-11.2-33.8h2.8v33.8q-7.4 2.8-15.4 2.8-6.9 0-13.2-2.5-6.4-2.6-11.2-7.1-4.8-4.5-7.7-11.1-2.8-6.7-2.8-14.4 0-7.2 2.8-13.7 2.8-6.5 7.5-11.2 4.7-4.7 11.2-7.5 6.5-2.8 13.6-2.8 9 0 16.6 4.1 7.7 4.2 12.5 11.3l-2.3 1.5q-4.5-6.5-11.6-10.3-7-3.8-15.2-3.8-6.5 0-12.5 2.6-6 2.5-10.3 6.9-4.4 4.3-7 10.3-2.5 6-2.5 12.6 0 7 2.6 13.2 2.7 6.1 7 10.2 4.5 4.2 10.3 6.6 5.8 2.3 12.1 2.3 6.6 0 12.7-2.1v-2.7q-5.8 2-12.2 2-4.7 0-9.1-1.3-4.4-1.3-8.1-3.9-3.7-2.5-6.5-6.1-2.8-3.5-4.4-8.2-1.6-4.7-1.6-10 0-8.1 4-14.8 3.9-6.8 10.7-10.8 6.8-4 14.8-4 7.5 0 14 3.5 6.4 3.5 10.5 9.5l-2.3 1.5q-3.7-5.4-9.6-8.5-5.8-3.2-12.6-3.2-5.4 0-10.3 2.1-5 2.2-8.6 5.8-3.6 3.5-5.7 8.5-2.1 4.9-2.1 10.4 0 4.8 1.4 9.1 1.5 4.3 4 7.5 2.5 3.2 5.9 5.5 3.3 2.2 7.3 3.4 4 1.2 8.1 1.2 6.5 0 12.4-2.2v-2.8q-5.8 2.2-12.1 2.2-4.7 0-9.1-1.6-4.3-1.6-7.7-4.6-3.4-3-5.4-7.6-2-4.6-2-10.1 0-6.5 3.2-12 3.2-5.5 8.8-8.7 5.5-3.2 11.9-3.2 6.1 0 11.3 2.8 5.2 2.8 8.5 7.6l-2.3 1.5q-2.9-4.2-7.5-6.6-4.6-2.5-10-2.5-5.7 0-10.5 2.8-4.9 2.8-7.7 7.7-2.8 4.8-2.8 10.6 0 3.9 1.1 7.4 1.1 3.4 3.1 5.9 2 2.5 4.7 4.3 2.7 1.7 5.7 2.6 3.1 0.9 6.4 0.9 6.6 0 12.4-2.6v-2.7q-5.6 2.4-12 2.4-3.7 0-7-1.1-3.3-1.1-5.9-3.3-2.7-2.2-4.2-5.8-1.5-3.6-1.5-8 0-3.8 1.4-7.1 1.5-3.4 3.9-5.9 2.5-2.4 5.8-3.9 3.4-1.4 7.1-1.4 4.7 0 8.7 2.2 4 2.1 6.5 5.8l-2.3 1.5q-2.2-3.1-5.6-4.9-3.3-1.8-7.3-1.8-6.4 0-10.9 4.5-4.5 4.6-4.5 11 0 3.9 1.3 6.9 1.3 3.1 3.5 4.9 2.2 1.8 5 2.7 2.8 0.9 5.9 0.9 6.5 0 12.1-2.7zm49.7-9.5q-4.5 4.6-4.5 11 0 6.4 4.5 10.9 4.5 4.5 10.9 4.5 6.5 0 11-4.5 4.5-4.5 4.5-10.9 0-6.4-4.5-11-4.5-4.5-11-4.5-6.4 0-10.9 4.5zm-5.9 18.1q-1.4-3.4-1.4-7.1 0-3.7 1.4-7.1 1.5-3.4 3.9-5.9 2.5-2.4 5.8-3.9 3.4-1.4 7.1-1.4 3.8 0 7.1 1.4 3.4 1.5 5.9 3.9 2.4 2.5 3.9 5.9 1.4 3.4 1.4 7.1 0 3.7-1.4 7.1-1.5 3.3-3.9 5.8-2.5 2.5-5.9 3.9-3.3 1.5-7.1 1.5-3.7 0-7.1-1.5-3.3-1.4-5.8-3.9-2.4-2.5-3.9-5.8zm-1.4-17.7q-2.8 4.8-2.8 10.6 0 5.7 2.8 10.6 2.8 4.8 7.7 7.7 4.8 2.8 10.5 2.8 5.8 0 10.6-2.8 4.9-2.9 7.7-7.7 2.8-4.9 2.8-10.6 0-5.8-2.8-10.6-2.8-4.9-7.7-7.7-4.8-2.8-10.6-2.8-5.7 0-10.5 2.8-4.9 2.8-7.7 7.7zm-2.5 22.6q-3.2-5.5-3.2-12 0-6.5 3.2-12 3.2-5.5 8.8-8.7 5.5-3.2 11.9-3.2 6.5 0 12 3.2 5.5 3.2 8.7 8.7 3.3 5.5 3.3 12 0 6.5-3.3 12-3.2 5.5-8.7 8.7-5.5 3.2-12 3.2-6.4 0-11.9-3.2-5.6-3.2-8.8-8.7zm-3.9-22.4q-2.1 4.9-2.1 10.4 0 5.4 2.1 10.4 2.1 4.9 5.7 8.5 3.6 3.6 8.6 5.7 4.9 2.1 10.3 2.1 5.5 0 10.4-2.1 5-2.1 8.6-5.7 3.5-3.6 5.7-8.5 2.1-5 2.1-10.4 0-5.5-2.1-10.4-2.2-5-5.7-8.5-3.6-3.6-8.6-5.7-4.9-2.1-10.4-2.1-5.4 0-10.3 2.1-5 2.1-8.6 5.7-3.6 3.5-5.7 8.5zm-0.9 25.2q-4-6.8-4-14.8 0-8 4-14.8 3.9-6.8 10.7-10.8 6.8-4 14.8-4 8.1 0 14.8 4 6.8 4 10.8 10.8 4 6.8 4 14.8 0 8-4 14.8-4 6.8-10.8 10.8-6.7 3.9-14.8 3.9-8 0-14.8-3.9-6.8-4-10.7-10.8zm-4.3-27.4q-2.5 6-2.5 12.6 0 6.5 2.5 12.6 2.6 5.9 7 10.3 4.3 4.3 10.3 6.9 6 2.5 12.5 2.5 6.6 0 12.6-2.5 6-2.6 10.3-6.9 4.4-4.4 6.9-10.3 2.6-6.1 2.6-12.6 0-6.6-2.6-12.6-2.5-6-6.9-10.3-4.3-4.4-10.3-6.9-6-2.6-12.6-2.6-6.5 0-12.5 2.6-6 2.5-10.3 6.9-4.4 4.3-7 10.3zm-2.5 26.2q-2.8-6.5-2.8-13.6 0-7.2 2.8-13.7 2.8-6.5 7.5-11.2 4.7-4.7 11.2-7.5 6.5-2.8 13.6-2.8 7.2 0 13.7 2.8 6.5 2.8 11.2 7.5 4.7 4.7 7.5 11.2 2.8 6.5 2.8 13.7 0 7.1-2.8 13.6-2.8 6.5-7.5 11.3-4.7 4.6-11.2 7.5-6.5 2.7-13.7 2.7-7.1 0-13.6-2.7-6.5-2.9-11.2-7.5-4.7-4.8-7.5-11.3zm98.5 18.7v-64.7h2.8v64.7zm-5.6 0v-64.7h2.8v64.7zm-5.6 0v-64.7h2.8v64.7zm-5.6 0v-64.7h2.8v64.7zm72.9-64.7v33.6l-2.8-4.7v-28.9zm5.6 0v42.8l-2.8-4.7v-38.1zm5.6 0v52.1l-2.8-4.7v-47.4zm-40.3 64.7v-33.5l2.8 4.6v28.9zm-5.6 0v-42.8l2.8 4.8v38zm-5.6 0v-52.1l2.8 4.8v47.3zm40.8 0l-39.8-64.7h3.3l39.7 64.7zm6.6 0l-39.7-64.7h3.3l39.8 64.7zm6.5 0l-39.6-64.7h3.2l36.9 60.1v-60.1h2.8v64.7q0 0-3.3 0zm-19.7 0l-37-60.1v60.1h-2.8v-64.7q0 0 3.4 0l39.6 64.7zm71.2-61.9h-42.2v-2.8h42.2zm0 5.7h-42.2v-2.9h42.2zm-30.9 5.7h-11.3v-2.8h42.2v2.8h-11.2v50.6h-2.9v-50.6h-2.8v50.6h-2.8v-50.6h-2.8v50.6h-2.8v-50.6h-2.8v50.6h-2.8zm52-14.1v64.7h-2.8v-64.7zm-5.6 0v64.7h-2.8v-64.7zm-5.6 0v64.7h-2.9v-64.7zm16.9 39.4v11.3h29.9v2.8h-29.9v2.8h29.9v2.8h-29.9v2.8h29.9v2.8h-32.7v-64.7h32.7v2.8h-29.9v2.9h29.9v2.8h-29.9v2.8h29.9v2.8h-29.9v11.2h15.4v2.9h-15.4v2.8h15.4v2.8h-15.4v2.8h15.4v2.8zm57.5-4.1v-2.8h17q3.9 0 6.5-2.5 2.7-2.5 2.7-7.1 0-3.4-2.8-6.1-2.8-2.7-6.4-2.7h-24.2v50.6h-2.8v-53.4h27q4.7 0 8.4 3.5 3.6 3.6 3.6 8.1 0 5.6-3.5 9-3.5 3.4-8.5 3.4zm0 5.7v-2.8h16.9q6.1 0 10.5-4.3 4.4-4.3 4.4-11 0-5.7-4.5-10.1-4.5-4.3-10.4-4.3h-29.7v56.2h-2.8v-59h32.5q4.7 0 8.7 2.3 4.1 2.4 6.6 6.4 2.4 4 2.4 8.5 0 7.7-5.2 12.9-5.2 5.2-12.5 5.2zm0 5.6v-2.8h17q5.5 0 10.1-2.7 4.7-2.7 7.5-7.5 2.9-4.9 2.9-10.7 0-5.3-2.9-9.9-2.7-4.6-7.5-7.4-4.7-2.8-10.1-2.8h-35.4v61.9h-2.8v-64.7h38.2q6.1 0 11.5 3.2 5.4 3.1 8.6 8.4 3.2 5.3 3.2 11.3 0 7-3 12.2-3 5.3-8.1 8.3l7.2 21.3h-2.9l-7-20q-1.5 0.6-2.4 0.9l6.6 19.1h-3l-6.4-18.5q-0.3 0.1-2.5 0.3l6.1 18.2h-3l-6-18.1h-2.5l5.7 18.1h-3l-5.7-18.1zm-1.6-26.9v45h-2.8v-47.8h21.3q2.7 0 4.5 1.8 1.9 1.8 1.9 4.2 0 6.8-6.4 6.8h-16.9v-2.8h16.9q1.7 0 2.7-0.9 0.9-0.9 0.9-3.1 0-1.3-1-2.2-1-1-2.6-1zm65.2 45v-64.7h2.8v64.7zm-5.6 0v-64.7h2.8v64.7zm-5.6 0v-64.7h2.8v64.7zm-5.6 0v-64.7h2.8v64.7zm49.8-43.3q-4.6 4.6-4.6 11 0 6.4 4.6 10.9 4.5 4.5 10.9 4.5 6.4 0 11-4.5 4.5-4.5 4.5-10.9 0-6.4-4.5-11-4.6-4.5-11-4.5-6.4 0-10.9 4.5zm-5.9 18.1q-1.5-3.4-1.5-7.1 0-3.7 1.5-7.1 1.4-3.4 3.9-5.9 2.4-2.4 5.8-3.9 3.4-1.4 7.1-1.4 3.7 0 7.1 1.4 3.4 1.5 5.8 3.9 2.5 2.5 4 5.9 1.4 3.4 1.4 7.1 0 3.7-1.4 7.1-1.5 3.3-4 5.8-2.4 2.5-5.8 3.9-3.4 1.5-7.1 1.5-3.7 0-7.1-1.5-3.4-1.4-5.8-3.9-2.5-2.5-3.9-5.8zm-1.5-17.7q-2.8 4.8-2.8 10.6 0 5.7 2.8 10.6 2.9 4.8 7.7 7.7 4.9 2.8 10.6 2.8 5.8 0 10.6-2.8 4.8-2.9 7.7-7.7 2.8-4.9 2.8-10.6 0-5.8-2.8-10.6-2.9-4.9-7.7-7.7-4.8-2.8-10.6-2.8-5.7 0-10.6 2.8-4.8 2.8-7.7 7.7zm-2.4 22.6q-3.2-5.5-3.2-12 0-6.5 3.2-12 3.2-5.5 8.7-8.7 5.5-3.2 12-3.2 6.5 0 12 3.2 5.5 3.2 8.7 8.7 3.2 5.5 3.2 12 0 6.5-3.2 12-3.2 5.5-8.7 8.7-5.5 3.2-12 3.2-6.5 0-12-3.2-5.5-3.2-8.7-8.7zm-3.9-22.4q-2.1 4.9-2.1 10.4 0 5.4 2.1 10.4 2.1 4.9 5.7 8.5 3.6 3.6 8.5 5.7 5 2.1 10.4 2.1 5.4 0 10.4-2.1 5-2.1 8.5-5.7 3.6-3.6 5.7-8.5 2.1-5 2.1-10.4 0-5.5-2.1-10.4-2.1-5-5.7-8.5-3.5-3.6-8.5-5.7-5-2.1-10.4-2.1-5.4 0-10.4 2.1-4.9 2.1-8.5 5.7-3.6 3.5-5.7 8.5zm-1 25.2q-3.9-6.8-3.9-14.8 0-8 3.9-14.8 4-6.8 10.8-10.8 6.8-4 14.8-4 8 0 14.8 4 6.8 4 10.8 10.8 3.9 6.8 3.9 14.8 0 8-3.9 14.8-4 6.8-10.8 10.8-6.8 3.9-14.8 3.9-8 0-14.8-3.9-6.8-4-10.8-10.8zm-4.2-27.4q-2.5 6-2.5 12.6 0 6.5 2.5 12.6 2.6 5.9 6.9 10.3 4.4 4.3 10.3 6.9 6.1 2.5 12.6 2.5 6.6 0 12.6-2.5 6-2.6 10.3-6.9 4.3-4.4 6.9-10.3 2.6-6.1 2.6-12.6 0-6.6-2.6-12.6-2.6-6-6.9-10.3-4.3-4.4-10.3-6.9-6-2.6-12.6-2.6-6.5 0-12.6 2.6-5.9 2.5-10.3 6.9-4.3 4.3-6.9 10.3zm-2.6 26.2q-2.7-6.5-2.7-13.6 0-7.2 2.7-13.7 2.8-6.5 7.5-11.2 4.8-4.7 11.2-7.5 6.6-2.8 13.7-2.8 7.2 0 13.6 2.8 6.6 2.8 11.3 7.5 4.7 4.7 7.5 11.2 2.8 6.5 2.8 13.7 0 7.1-2.8 13.6-2.8 6.5-7.5 11.3-4.7 4.6-11.3 7.5-6.4 2.7-13.6 2.7-7.1 0-13.7-2.7-6.4-2.9-11.2-7.5-4.7-4.8-7.5-11.3zm94-10.7v-2.8h16.9q3.9 0 6.5-2.5 2.7-2.5 2.7-7.1 0-3.4-2.8-6.1-2.8-2.7-6.4-2.7h-24.1v50.6h-2.8v-53.4h26.9q4.8 0 8.4 3.5 3.6 3.6 3.6 8.1 0 5.6-3.5 9-3.5 3.4-8.5 3.4zm0 5.7v-2.8h17q6.1 0 10.4-4.3 4.4-4.3 4.4-11 0-5.7-4.5-10.1-4.4-4.3-10.3-4.3h-29.8v56.2h-2.8v-59h32.6q4.6 0 8.7 2.3 4.1 2.4 6.5 6.4 2.4 4 2.4 8.5 0 7.7-5.2 12.9-5.2 5.2-12.4 5.2zm0 5.6v-2.8h16.9q5.5 0 10.2-2.7 4.7-2.7 7.5-7.5 2.8-4.9 2.8-10.7 0-5.3-2.8-9.9-2.8-4.6-7.5-7.4-4.8-2.8-10.2-2.8h-35.4v61.9h-2.8v-64.7h38.2q6.1 0 11.5 3.2 5.4 3.1 8.6 8.4 3.2 5.3 3.2 11.3 0 7-3 12.2-3 5.3-8.1 8.3l7.3 21.3h-3l-7-20q-1.5 0.6-2.3 0.9l6.5 19.1h-3l-6.4-18.5q-0.3 0.1-2.5 0.3l6.1 18.2h-3l-5.9-18.1h-2.6l5.7 18.1h-2.9l-5.8-18.1zm-1.6-26.9v45h-2.8v-47.8h21.4q2.6 0 4.5 1.8 1.9 1.8 1.9 4.2 0 6.8-6.4 6.8h-17v-2.8h17q1.6 0 2.6-0.9 1-0.9 1-3.1 0-1.3-1.1-2.2-1-1-2.5-1zm93.3 28.1h-19.1v-30.9q0 0 19.1 0 4.7 0 8 4.6 3.4 4.5 3.4 10.9 0 6.4-3.4 10.9-3.3 4.5-8 4.5zm-16.3-28.1v25.3h16.3q3.5 0 6-3.7 2.5-3.7 2.5-8.9 0-5.3-2.5-9-2.5-3.7-6-3.7zm-5.6-5.6v36.6h22q5.8 0 10-5.4 4.2-5.4 4.2-12.9 0-5-1.9-9.2-1.9-4.2-5.2-6.6-3.3-2.5-7.1-2.5zm22 39.4h-24.8v-42.2h24.8q4.6 0 8.5 2.8 4 2.8 6.3 7.7 2.3 4.8 2.3 10.6 0 5.7-2.3 10.6-2.3 4.8-6.3 7.7-3.9 2.8-8.5 2.8zm-27.6-45v47.8h27.6q5.3 0 9.9-3.2 4.6-3.2 7.4-8.7 2.7-5.5 2.7-12 0-6.5-2.7-12-2.8-5.5-7.4-8.7-4.6-3.2-9.9-3.2zm27.6 50.6h-30.4v-53.4h30.4q6.1 0 11.4 3.5 5.2 3.6 8.4 9.8 3.1 6.1 3.1 13.4 0 7.2-3.1 13.4-3.2 6.1-8.4 9.7-5.3 3.6-11.4 3.6zm-33.2-56.3v59.1h33.2q5.1 0 9.9-2.3 4.8-2.4 8.2-6.3 3.5-4 5.6-9.4 2.1-5.5 2.1-11.5 0-6-2.1-11.5-2.1-5.4-5.6-9.4-3.4-4-8.2-6.3-4.8-2.4-9.9-2.4zm33.3 61.9h-36.1v-64.7h36.1q7.6 0 14.2 4.4 6.6 4.3 10.5 11.8 3.9 7.4 3.9 16.2 0 6.5-2.3 12.6-2.3 5.9-6.2 10.3-3.9 4.3-9.2 6.9-5.2 2.5-10.9 2.5zm48-64.7v64.7h-2.9v-64.7zm-5.6 0v64.7h-2.8v-64.7zm-5.6 0v64.7h-2.8v-64.7zm16.8 39.4v11.3h30v2.8h-30v2.8h30v2.8h-30v2.8h30v2.8h-32.8v-64.7h32.8v2.8h-30v2.9h30v2.8h-30v2.8h30v2.8h-30v11.2h15.4v2.9h-15.4v2.8h15.4v2.8h-15.4v2.8h15.4v2.8zm63.4-14.1h-4.7q-3 0-4.3-1.5-1.3-1.5-1.3-4.1 0-5.6 8.4-5.6 7.8 0 11.8 2.3l-2.2 1.8q-2.8-1.3-9.6-1.3-3.4 0-4.6 0.7-1.1 0.8-1.1 2.1 0 1.3 0.6 2.1 0.6 0.7 2.3 0.7h4.9q5.2 0 9.5 1.8 4.2 1.8 6.9 4.9 2.8 3.1 4.2 7.2 1.5 4 1.5 8.6 0 3.8-1.1 7.1-1 3.4-3.2 6.2-2.1 2.8-5.1 4.9-3 2-7.1 3.2-4.1 1.1-8.9 1.1-7.6 0-14.2-2.2-6.5-2.3-10.9-6.4l2.3-1.7q4 3.6 9.9 5.6 6 1.9 12.9 1.9 5.3 0 9.6-1.5 4.4-1.6 7.1-4.3 2.8-2.7 4.3-6.2 1.6-3.6 1.6-7.7 0-5.4-2.2-9.8-2.2-4.4-6.7-7.1-4.5-2.8-10.6-2.8zm-4.7 2.9h4.5q7.9 0 12.4 4.8 4.4 4.8 4.4 12 0 7.3-5.2 12.1-5.1 4.8-14.5 4.8-6.3 0-11.7-1.7-5.4-1.7-9-4.9l2.2-1.7q3.2 2.6 8 4 4.9 1.5 10.5 1.5 8.2 0 12.6-4 4.3-3.9 4.3-10.1 0-6.1-3.6-10-3.7-4-10.5-4h-4.4q-5.7 0-8.5-3.2-2.9-3.1-2.9-8.1 0-5 3.5-8.1 3.6-3.1 10.7-3.1 4.9 0 9.2 1.1 4.2 1.2 7 3.3l-2.2 1.7q-4.9-3.3-14-3.3-5.9 0-8.7 2.3-2.7 2.3-2.7 6.1 0 3.8 2 6.2 2 2.3 6.6 2.3zm0 5.6h4.3q5.7 0 8.6 3.1 2.8 3.2 2.8 8.1 0 5-3.5 8.2-3.6 3.1-10.6 3.1-5 0-9.3-1.2-4.2-1.1-7-3.3l2.2-1.7q4.9 3.4 14.1 3.4 5.9 0 8.6-2.3 2.7-2.4 2.7-6.2 0-3.8-2-6.1-2.1-2.3-6.6-2.3h-4.3q-8 0-12.5-4.8-4.5-4.8-4.5-12.1 0-7.3 5.2-12.1 5.2-4.8 14.6-4.8 6.2 0 11.6 1.8 5.4 1.7 9 4.8l-2.2 1.8q-3.2-2.7-8-4.1-4.9-1.4-10.4-1.4-8.3 0-12.7 3.9-4.3 3.9-4.3 10.1 0 6.2 3.7 10.1 3.6 4 10.5 4zm0 5.6h4.3q3 0 4.3 1.6 1.4 1.5 1.4 4 0 5.7-8.4 5.7-8 0-11.9-2.4l2.2-1.7q2.8 1.2 9.7 1.2 3.3 0 4.5-0.7 1.1-0.7 1.1-2.1 0-1.3-0.6-2-0.6-0.8-2.4-0.8h-4.2q-5.4 0-9.7-1.7-4.4-1.8-7.2-4.9-2.8-3.1-4.3-7.1-1.4-4.1-1.4-8.8 0-3.7 1-7.1 1.1-3.4 3.2-6.2 2.1-2.8 5.1-4.8 3-2.1 7.1-3.2 4.1-1.2 9-1.2 7.5 0 14.1 2.3 6.5 2.3 10.9 6.4l-2.3 1.7q-4-3.6-9.9-5.6-6-2-12.8-2-5.4 0-9.7 1.6-4.3 1.5-7.1 4.2-2.8 2.7-4.3 6.3-1.5 3.5-1.5 7.6 0 5.5 2.2 9.9 2.2 4.5 6.8 7.1 4.6 2.7 10.8 2.7zm50.5 25.3v-64.7h2.8v64.7zm-5.6 0v-64.7h2.8v64.7zm-5.6 0v-64.7h2.8v64.7zm-5.7 0v-64.7h2.9v64.7zm78.6 0v-33.8h2.9v33.8zm11.2 0v-33.8h2.8v33.8zm-5.6 0v-33.8h2.8v33.8zm-11.2-33.8h2.8v33.8q-7.5 2.8-15.4 2.8-6.9 0-13.3-2.5-6.3-2.5-11.1-7-4.8-4.6-7.7-11.2-2.8-6.7-2.8-14.4 0-7.2 2.7-13.7 2.8-6.5 7.5-11.2 4.8-4.7 11.2-7.5 6.6-2.8 13.7-2.8 8.9 0 16.6 4.2 7.6 4.1 12.5 11.2l-2.4 1.5q-4.4-6.5-11.5-10.3-7-3.8-15.2-3.8-6.6 0-12.6 2.6-5.9 2.5-10.3 6.9-4.3 4.3-6.9 10.3-2.5 6-2.5 12.6 0 7 2.6 13.2 2.6 6.1 7 10.3 4.4 4.1 10.2 6.5 5.9 2.3 12.2 2.3 6.6 0 12.7-2.1v-2.6q-5.9 1.9-12.3 1.9-4.6 0-9-1.3-4.4-1.3-8.2-3.9-3.7-2.5-6.5-6-2.8-3.6-4.4-8.3-1.5-4.7-1.5-10 0-8 3.9-14.8 4-6.8 10.8-10.8 6.8-4 14.8-4 7.5 0 14 3.6 6.4 3.4 10.5 9.4l-2.4 1.5q-3.7-5.4-9.5-8.5-5.8-3.1-12.6-3.1-5.4 0-10.4 2.1-4.9 2.1-8.5 5.7-3.6 3.5-5.7 8.5-2.1 4.9-2.1 10.4 0 4.9 1.4 9.2 1.4 4.2 3.9 7.4 2.6 3.2 5.9 5.5 3.4 2.2 7.3 3.4 4 1.2 8.2 1.2 6.5 0 12.4-2.2v-2.8q-5.8 2.2-12.1 2.2-4.8 0-9.1-1.6-4.4-1.6-7.8-4.6-3.3-3-5.3-7.6-2-4.6-2-10.1 0-6.5 3.2-12 3.2-5.5 8.7-8.7 5.5-3.2 12-3.2 6.1 0 11.3 2.8 5.2 2.8 8.5 7.6l-2.4 1.6q-2.9-4.3-7.5-6.7-4.5-2.5-9.9-2.5-5.7 0-10.6 2.8-4.8 2.8-7.7 7.7-2.8 4.8-2.8 10.6 0 4 1.1 7.4 1.2 3.4 3.2 5.9 2 2.5 4.6 4.3 2.7 1.7 5.8 2.6 3.1 0.9 6.4 0.9 6.6 0 12.4-2.6v-2.7q-5.6 2.5-12 2.5-3.8 0-7-1.2-3.3-1.1-6-3.3-2.6-2.2-4.1-5.7-1.6-3.6-1.6-8.1 0-3.7 1.5-7.1 1.4-3.4 3.9-5.9 2.4-2.4 5.8-3.9 3.4-1.4 7.1-1.4 4.7 0 8.6 2.2 4 2.1 6.5 5.8l-2.3 1.6q-2.1-3.2-5.5-5-3.3-1.8-7.3-1.8-6.4 0-10.9 4.5-4.6 4.6-4.6 11 0 3.9 1.3 7 1.3 3 3.5 4.8 2.3 1.8 5 2.7 2.8 0.9 6 0.9 6.5 0 12.1-2.7zm71.8-30.9v33.6l-2.8-4.6v-29zm5.6 0v42.8l-2.8-4.7v-38.1zm5.7 0v52.2l-2.9-4.8v-47.4zm-40.3 64.7v-33.5l2.8 4.6v28.9zm-5.6 0v-42.7l2.8 4.7v38zm-5.6 0v-52.1l2.8 4.8v47.3zm40.8 0l-39.8-64.7h3.3l39.7 64.7zm6.6 0l-39.7-64.7h3.3l39.8 64.7zm6.5 0l-39.6-64.7h3.3l36.8 60.2v-60.2h2.9v64.7q0 0-3.4 0zm-19.7 0l-36.9-60.1v60.1h-2.9v-64.7q0 0 3.4 0l39.6 64.7z"/>
	<path id="Path 0" class="s1" d="m1064.25 5c-1.8 1.11-3.96 3.68-4.83 5.75-0.99 2.34-1.36 5.07-0.99 7.25 0.35 2.07 1.91 4.79 3.83 6.67 1.78 1.75 4.82 3.48 6.74 3.84 2.3 0.44 4.79 0.12 7.25-0.92 2.06-0.88 4.65-3.05 5.75-4.84 1.24-2.03 1.98-4.94 1.95-7.75-0.03-3.83-0.59-5.05-3.74-8.21-3.16-3.15-4.38-3.71-8.21-3.74-2.81-0.03-5.72 0.71-7.75 1.95z"/>
</svg>