<svg version="1.2" xmlns="http://www.w3.org/2000/svg" viewBox="0 0 150 100" width="150" height="100">
	<style>
		.s0 { fill: #ffffff } 
		.s1 { fill: #c84b31 } 
	</style>
	<path id="LID" class="s0" aria-label="LID"  d="m5.6 67v-64.7h2.8v64.7zm16.9 0v-64.7h2.8v50.6h22.5v2.9h-22.5v2.8h22.5v2.8h-22.5v2.8h22.5v2.8zm-5.6 0v-64.7h2.8v64.7zm-5.6 0v-64.7h2.8v64.7zm60.3 0v-64.7h2.8v64.7zm-5.7 0v-64.7h2.9v64.7zm-5.7 0v-64.7h2.8v64.7zm-5.6 0v-64.7h2.8v64.7zm63.1-16.9h-19.2v-30.9q0 0 19.2 0 4.6 0 8 4.6 3.3 4.5 3.3 10.9 0 6.4-3.3 10.9-3.4 4.5-8 4.5zm-16.4-28.1v25.3h16.4q3.5 0 5.9-3.7 2.5-3.7 2.5-8.9 0-5.3-2.5-9-2.4-3.7-5.9-3.7zm-5.6-5.6v36.5h22q5.8 0 10-5.3 4.2-5.4 4.2-12.9 0-5-2-9.2-1.9-4.2-5.2-6.7-3.2-2.4-7-2.4zm21.9 39.4h-24.8v-42.2h24.8q4.6 0 8.6 2.8 3.9 2.8 6.2 7.7 2.4 4.8 2.4 10.6 0 5.7-2.4 10.5-2.3 4.9-6.2 7.7-4 2.9-8.6 2.9zm-27.6-45v47.8h27.6q5.4 0 10-3.2 4.6-3.2 7.3-8.8 2.7-5.5 2.7-11.9 0-6.5-2.7-12-2.7-5.5-7.3-8.7-4.6-3.2-10-3.2zm27.7 50.6h-30.5v-53.5h30.5q6.1 0 11.3 3.6 5.3 3.6 8.4 9.8 3.2 6.1 3.2 13.4 0 7.2-3.2 13.4-3.1 6.1-8.4 9.7-5.2 3.6-11.3 3.6zm-33.3-56.3v59.1h33.3q5.1 0 9.8-2.4 4.8-2.3 8.3-6.2 3.5-4 5.5-9.5 2.1-5.5 2.1-11.4 0-6-2.1-11.5-2-5.5-5.5-9.4-3.5-4-8.3-6.3-4.7-2.4-9.8-2.4zm33.2 61.9h-36v-64.7h36q7.6 0 14.2 4.3 6.6 4.4 10.5 11.8 4 7.5 4 16.3 0 6.5-2.4 12.5-2.3 6-6.1 10.3-3.9 4.4-9.2 7-5.3 2.5-11 2.5z"/>
	<path id="Path 0" class="s1" d="m12.5 73.81c-1.65 1-3.83 3.58-4.85 5.75-1.26 2.69-1.66 5.05-1.24 7.44 0.35 2 1.99 4.91 3.85 6.8 1.78 1.81 4.59 3.55 6.24 3.86 1.65 0.32 4.24 0.3 5.75-0.04 1.51-0.34 4.15-1.86 5.87-3.37 2.57-2.26 3.23-3.75 3.75-8.39 0.62-5.56 0.58-5.7-3.37-9.71-3.48-3.53-4.59-4.07-8.5-4.1-2.63-0.03-5.75 0.71-7.5 1.76zm111.75 0.19c-1.79 1.1-3.92 3.35-4.75 5-0.83 1.65-1.5 4.46-1.5 6.25 0.01 1.79 0.91 4.71 2 6.5 1.1 1.79 3.35 3.92 5 4.75 1.65 0.83 4.35 1.5 6 1.5 1.65 0 4.35-0.67 6-1.5 1.65-0.83 3.9-2.96 5-4.75 1.09-1.79 1.99-4.83 1.99-6.75 0-1.92-0.9-4.96-1.99-6.75-1.1-1.79-3.35-3.92-5-4.75-1.65-0.83-4.46-1.5-6.25-1.5-1.79 0.01-4.71 0.91-6.5 2zm-54.15 0.26c-1.33 0.68-3.35 2.51-4.5 4.07-1.55 2.08-2.07 4.18-1.99 8 0.1 4.62 0.5 5.52 3.75 8.42 3.08 2.75 4.41 3.25 8.64 3.25 3.09 0 6-0.67 7.63-1.75 1.45-0.96 3.25-2.99 4-4.5 0.75-1.51 1.37-4.33 1.37-6.25 0-1.92-0.53-4.51-1.17-5.75-0.65-1.24-1.66-2.73-2.25-3.33-0.6-0.59-2.09-1.6-3.33-2.25-1.24-0.64-3.94-1.16-6-1.16-2.06 0.01-4.83 0.58-6.15 1.25z"/>
</svg>