<svg version="1.2" xmlns="http://www.w3.org/2000/svg" viewBox="0 0 436 412" width="45" height="43"><style>.a{fill:#161f31}</style><path fill-rule="evenodd" class="a" d="m156 28.8c1.4 0.2 3.6 1 5 1.7 1.4 0.7 3.7 2.6 5.2 4.4 1.6 1.7 3.1 4.8 3.4 6.8 0.4 2.1 0.3 5.4-0.3 7.3-0.5 1.9-14.8 25.5-62.2 101.5l57.7 0.3c31.7 0.1 83.9 0.1 174-0.3l-31.9-48.5c-17.5-26.7-32.3-50.2-32.9-52.3-0.6-2.4-0.7-5-0.1-7.5 0.6-2 1.8-4.8 2.9-6.2 1-1.4 3.5-3.3 5.5-4.3 2.1-0.9 5.5-1.7 7.7-1.7 2.2 0 5.2 0.6 6.7 1.4 1.6 0.8 3.8 2.5 5 3.8 1.1 1.2 18.8 27.7 76.2 115.3l16.8 0.5c14.8 0.5 17.3 0.8 21 2.8 2.4 1.2 5.4 3.7 6.7 5.4 1.3 1.8 2.9 5.2 3.5 7.5 0.6 2.4 0.8 6 0.5 8-0.4 2.1-1.2 4.9-1.9 6.3-0.7 1.4-2.6 3.7-4.2 5.2-1.5 1.5-4.5 3.4-6.6 4.2-2.9 1.3-3.7 2.2-3.7 4.1 0 1.4-9.7 41.8-21.6 89.7-11.8 48-22.5 89.3-23.7 91.7-1.2 2.5-3.6 5.6-5.3 7-1.8 1.4-4.9 3.2-7 3.8-3 1-32.7 1.3-129.4 1.3-96.7 0-126.4-0.3-129.4-1.3-2.1-0.6-5.2-2.4-7-3.8-1.7-1.4-4.1-4.5-5.3-7-1.2-2.4-11.9-43.7-23.7-91.7-11.9-47.9-21.6-88.3-21.6-89.7 0-1.9-0.8-2.8-3.8-4.1-2-0.8-5-2.7-6.5-4.2-1.6-1.5-3.5-3.8-4.2-5.2-0.7-1.4-1.5-4.2-1.9-6.3-0.3-2-0.1-5.6 0.5-8 0.6-2.3 2.2-5.7 3.5-7.5 1.3-1.7 4.3-4.2 6.6-5.4 3.9-2.1 6-2.3 38.3-3l36.5-58.6c20.1-32.2 37.6-59.4 39-60.4 1.4-1 4.1-2.3 6-2.7 1.9-0.5 4.6-0.6 6-0.3zm-42.3 194c-1 0.9-2.5 3.5-3.3 5.7-1.2 3.4-1.4 12.2-1.2 58.7 0.3 53.7 0.3 54.7 2.4 57.5 1.1 1.5 3.6 3.8 5.5 5.1 2.6 1.7 4.8 2.2 9.4 2.2 4.5 0 6.8-0.6 9.2-2.3 1.8-1.2 4.1-3.8 5.2-5.7 2-3.4 2-5.3 2.1-58.8 0-45.6-0.2-55.7-1.4-58-0.8-1.5-2.8-4.1-4.6-5.7-2.7-2.6-4-3-9.3-3.3-4.3-0.2-7.1 0.2-9.2 1.3-1.7 0.9-3.8 2.4-4.8 3.3zm95.5 1.8l-2.7 3.7c0 112.8 0 113.6 2.1 116.4 1.1 1.5 3.6 3.8 5.5 5.1 2.6 1.7 4.8 2.3 9.4 2.2 5.4 0 6.4-0.3 10.2-3.5 2.8-2.3 4.7-4.8 5.4-7.3 0.6-2.4 0.9-22.2 0.7-58.4-0.3-53.6-0.3-54.7-2.4-57.5-1.1-1.5-3.6-3.8-5.5-5.1-2.5-1.6-4.8-2.2-8.4-2.2-2.8 0-6.5 0.7-8.3 1.4-1.8 0.8-4.5 3.1-6 5.2zm95.4 0.7c-2.1 2.8-2.1 3.8-2.4 59l-0.3 56.2c3.6 5.4 6.2 8 8.1 9.2 2.7 1.8 4.9 2.4 9.5 2.3 5.4 0 6.4-0.3 10.2-3.5 2.8-2.3 4.7-4.8 5.4-7.3 0.6-2.4 0.9-22.2 0.7-58.4-0.3-53.6-0.3-54.7-2.4-57.5-1.1-1.5-3.6-3.8-5.5-5.1-2.5-1.7-4.8-2.2-9-2.2-4.1 0-6.4 0.6-8.9 2.2-1.8 1.3-4.3 3.6-5.4 5.1z"/></svg>